<svg width="20" height="20" viewBox="0 0 20 20" fill="none" xmlns="http://www.w3.org/2000/svg">
<g clip-path="url(#clip0_3692_1608)">
<path d="M5.29492 7.7872C5.29492 7.7872 7.19098 5.26362 10.9035 5L9.61254 7.29762L5.29527 7.7872H5.29492Z" fill="#FF7843"/>
<path d="M17.5205 10.0098L18.7308 8.4277C19.3362 7.22224 18.7308 7.14692 18.7308 7.14692C16.2696 7.03393 14.2114 9.36921 14.2114 9.36921V10.65C14.2114 10.65 16.2692 12.9853 18.7308 12.8723C18.7308 12.8723 19.3362 12.7973 18.7308 11.5918L17.5205 10.0098Z" fill="#FF7843"/>
<path d="M5.90039 12.854L9.54974 15L9.20911 13.2113L5.90039 12.854Z" fill="#FF7843"/>
<path d="M8.60341 6.8457C5.10491 6.8457 2 8.99268 2 10.2358C2 11.253 5.10491 13.6259 8.60341 13.6259C12.1019 13.6259 14.9381 11.1023 14.9381 10.2358C14.9381 9.03034 12.1019 6.8457 8.60341 6.8457ZM4.68992 10.4539C4.22651 10.4539 3.85081 10.1032 3.85081 9.67089C3.85081 9.23862 4.22651 8.88756 4.68992 8.88756C5.15332 8.88756 5.52867 9.23829 5.52867 9.67089C5.52867 10.1035 5.15297 10.4539 4.68992 10.4539Z" fill="#FF7843"/>
</g>
<defs>
<clipPath id="clip0_3692_1608">
<rect width="17" height="10" fill="white" transform="translate(2 5)"/>
</clipPath>
</defs>
</svg>
