<svg width="16" height="16" viewBox="0 0 16 16" fill="none" xmlns="http://www.w3.org/2000/svg">
<path d="M8 2C11.3137 2 14 4.68629 14 8C14 11.3137 11.3137 14 8 14C4.68629 14 2 11.3137 2 8C2 4.68629 4.68629 2 8 2ZM7.88965 9.79883C7.82629 9.89689 7.81503 9.91817 7.72949 10.0264C7.72753 10.0289 7.70537 10.0407 7.70117 10.043C7.70027 10.0435 7.69914 10.0444 7.69824 10.0449C7.67837 10.0557 7.65698 10.0649 7.63477 10.0723C7.41392 10.1451 7.21503 9.99443 7.08887 9.82715L5.77734 8.22852H3.03418C3.15365 10.8681 5.33097 12.9717 8 12.9717C10.2294 12.9717 12.1163 11.5041 12.7471 9.48242H10.5762C10.573 9.4823 10.5696 9.48163 10.5664 9.48145C10.5635 9.48128 10.5605 9.4807 10.5576 9.48047C10.5541 9.48019 10.5504 9.47989 10.5469 9.47949C10.5449 9.47928 10.5429 9.47974 10.541 9.47949C10.5366 9.47894 10.5317 9.47825 10.5273 9.47754L10.5244 9.47656C10.3625 9.4488 10.3047 9.31239 10.2109 9.15527L9.39746 7.38574L7.88965 9.79883ZM8 3.02832C5.59648 3.02832 3.59036 4.73401 3.12793 7.00098H5.91602C6.0808 6.99666 6.31433 7.10573 6.41895 7.26562L7.4668 8.55566L9.18945 5.51367C9.23352 5.33751 9.39209 5.22046 9.56543 5.22266C9.74741 5.22098 9.91045 5.35026 9.94531 5.53613L11.0146 8.43457L12.9316 8.42676C12.9382 8.42677 12.9447 8.42837 12.9512 8.42871C12.9633 8.28735 12.9717 8.14449 12.9717 8C12.9717 5.25436 10.7456 3.02832 8 3.02832Z" fill="#6855FF"/>
</svg>
