<svg width="16" height="16" viewBox="0 0 16 16" fill="none" xmlns="http://www.w3.org/2000/svg">
<path d="M10.3033 11.0988H13.8008C13.9336 11.0988 14.1684 10.9626 14.259 10.8669C14.2234 10.9034 14.305 10.8431 14.259 10.8669C14.3553 10.7696 14.5218 10.5472 14.5113 10.4105L14.5104 7.37465C14.5104 7.11184 14.2964 6.89794 14.0337 6.89794C13.7709 6.89794 13.557 7.11186 13.557 7.37465V9.31047L9.19384 5.03773C9.10373 4.95022 8.98561 4.90112 8.8604 4.90112C8.83856 4.90112 8.81672 4.90254 8.80251 4.90515C8.68108 4.92056 8.59569 4.95806 8.52404 5.01734L5.15376 7.81153L2.29623 5.03678C2.1269 4.87004 1.78629 4.8774 1.62217 5.04578C1.43906 5.23433 1.44428 5.5365 1.63261 5.72008L4.78706 8.78301C4.85539 8.84895 4.93981 8.894 5.01951 8.90681C5.06837 8.91723 5.10014 8.92056 5.1324 8.92056C5.24436 8.92056 5.35678 8.88072 5.44073 8.81147L8.82239 6.00709L13.0484 10.1463H10.3033C10.041 10.1463 9.82709 10.3593 9.82709 10.6221C9.82709 10.8849 10.041 11.0988 10.3033 11.0988Z" fill="#9950FF"/>
</svg>
