<svg width="20" height="20" viewBox="0 0 20 20" fill="none" xmlns="http://www.w3.org/2000/svg">
<g clip-path="url(#clip0_3692_1186)">
<mask id="mask0_3692_1186" style="mask-type:luminance" maskUnits="userSpaceOnUse" x="0" y="0" width="20" height="20">
<path d="M20 0H0V20H20V0Z" fill="white"/>
</mask>
<g mask="url(#mask0_3692_1186)">
<path d="M2 10C2 5.58172 5.58172 2 10 2C14.4183 2 18 5.58172 18 10C18 14.4183 14.4183 18 10 18C5.58172 18 2 14.4183 2 10Z" fill="url(#paint0_linear_3692_1186)"/>
<path d="M13.4287 11.5584C13.4287 13.8442 11.8858 15.7143 10.0001 15.7143C8.11437 15.7143 6.57153 13.8442 6.57153 11.5584C6.57153 9.27288 10.0001 4.28577 10.0001 4.28577C10.0001 4.28577 13.4287 9.27288 13.4287 11.5584Z" fill="white"/>
</g>
</g>
<defs>
<linearGradient id="paint0_linear_3692_1186" x1="4.97658" y1="4.77485" x2="21.4707" y2="23.7192" gradientUnits="userSpaceOnUse">
<stop stop-color="#1A1E21"/>
<stop offset="1" stop-color="#06060A"/>
</linearGradient>
<clipPath id="clip0_3692_1186">
<rect width="20" height="20" fill="white"/>
</clipPath>
</defs>
</svg>
